{
.appVersion = "1271";
copyright = "Copyright 2018 Google LLC. All Rights Reserved.";
customParameters = (
{
name = glyphOrder;
value = (
.notdef,
NULL,
CR,
space,
u16A40,
u16A41,
u16A42,
u16A43,
u16A44,
u16A45,
u16A46,
u16A47,
u16A48,
u16A49,
u16A4A,
u16A4B,
u16A4C,
u16A4D,
u16A4E,
u16A4F,
u16A50,
u16A51,
u16A52,
u16A53,
u16A54,
u16A55,
u16A56,
u16A57,
u16A58,
u16A59,
u16A5A,
u16A5B,
u16A5C,
u16A5D,
u16A5E,
u16A60,
u16A61,
u16A62,
u16A63,
u16A64,
u16A65,
u16A66,
u16A67,
u16A68,
u16A69,
u16A6E,
u16A6F,
nbspace
);
},
{
name = description;
value = "Designed by Monotype design team.";
},
{
name = license;
value = "This Font Software is licensed under the SIL Open Font License, Version 1.1. This Font Software is distributed on an \"AS IS\" BASIS, WITHOUT WARRANTIES OR CONDITIONS OF ANY KIND, either express or implied. See the SIL Open Font License for the specific language, permissions and limitations governing your use of this Font Software.";
},
{
name = licenseURL;
value = "http://scripts.sil.org/OFL";
},
{
name = vendorID;
value = GOOG;
},
{
name = unicodeRanges;
value = (
0,
1,
57
);
},
{
name = trademark;
value = "Noto is a trademark of Google Inc.";
},
{
name = "Has WWS Names";
value = 1;
},
{
name = versionString;
value = "Version 2.000";
},
{
name = fsType;
value = (
);
},
{
name = codePageRanges;
value = (
"1252"
);
}
);
date = "2018-01-30 19:10:08 +0000";
designer = "Monotype Design Team";
designerURL = "http://www.monotype.com/studio";
disablesAutomaticAlignment = 1;
familyName = "Noto Sans Mro";
fontMaster = (
{
alignmentZones = (
"{1069, 15}",
"{714, 15}",
"{536, 15}",
"{0, -15}",
"{-293, -15}"
);
ascender = 1069;
capHeight = 714;
customParameters = (
{
name = typoAscender;
value = 1069;
},
{
name = typoDescender;
value = -293;
},
{
name = typoLineGap;
value = 0;
},
{
name = winAscent;
value = 1069;
},
{
name = winDescent;
value = 293;
},
{
name = hheaAscender;
value = 1069;
},
{
name = hheaDescender;
value = -293;
},
{
name = hheaLineGap;
value = 0;
},

glyphs = (
{
glyphname = .notdef;
lastChange = "2018-02-01 19:37:50 +0000";
layers = (
{
layerId = UUID0;
paths = (
{
closed = 1;
nodes = (
"505 0 LINE",
"505 714 LINE",
"94 714 LINE",
"94 0 LINE"
);
},
{
closed = 1;
nodes = (
"145 663 LINE",
"454 663 LINE",
"454 51 LINE",
"145 51 LINE"
);
}
);
width = 600;
}
);
},
{
glyphname = u16A40;
lastChange = "2018-02-01 19:37:50 +0000";
layers = (
{
layerId = UUID0;
paths = (
{
closed = 1;
nodes = (
"579 -10 OFFCURVE",
"688 145 OFFCURVE",
"688 370 CURVE SMOOTH",
"688 583 OFFCURVE",
"555 725 OFFCURVE",
"353 725 CURVE SMOOTH",
"181 725 OFFCURVE",
"71 628 OFFCURVE",
"50 500 CURVE",
"148 500 LINE",
"168 593 OFFCURVE",
"249 645 OFFCURVE",
"344 645 CURVE SMOOTH",
"499 645 OFFCURVE",
"593 548 OFFCURVE",
"593 369 CURVE SMOOTH",
"593 194 OFFCURVE",
"512 70 OFFCURVE",
"353 70 CURVE SMOOTH",
"243 70 OFFCURVE",
"169 118 OFFCURVE",
"148 214 CURVE",
"50 214 LINE",
"72 82 OFFCURVE",
"176 -10 OFFCURVE",
"354 -10 CURVE SMOOTH"
);
}
);
width = 748;
}
);
unicode = 16A40;
},
{
glyphname = u16A41;
lastChange = "2018-02-01 19:37:50 +0000";
layers = (
{
layerId = UUID0;
paths = (
{
closed = 1;
nodes = (
"577 0 LINE",
"577 714 LINE",
"487 714 LINE",
"487 80 LINE",
"35 80 LINE",
"35 0 LINE"
);
}
);
width = 677;
}
);
unicode = 16A41;
},
{
glyphname = u16A42;
lastChange = "2018-02-01 19:37:50 +0000";
layers = (
{
layerId = UUID0;
paths = (
{
closed = 1;
nodes = (
"642 0 LINE",
"642 80 LINE",
"190 80 LINE",
"190 714 LINE",
"100 714 LINE",
"100 0 LINE"
);
}
);
width = 677;
}
);
unicode = 16A42;
},
{
glyphname = u16A43;
lastChange = "2018-02-01 19:37:50 +0000";
layers = (
{
layerId = UUID0;
paths = (
{
closed = 1;
nodes = (
"544 0 LINE",
"544 478 LINE SMOOTH",
"544 671 OFFCURVE",
"407 725 OFFCURVE",
"298 725 CURVE SMOOTH",
"150 725 OFFCURVE",
"50 633 OFFCURVE",
"50 494 CURVE SMOOTH",
"50 353 OFFCURVE",
"139 268 OFFCURVE",
"280 268 CURVE SMOOTH",
"369 268 OFFCURVE",
"448 285 OFFCURVE",
"513 299 CURVE",
"499 381 LINE",
"451 366 OFFCURVE",
"357 348 OFFCURVE",
"284 348 CURVE SMOOTH",
"191 348 OFFCURVE",
"145 401 OFFCURVE",
"145 497 CURVE SMOOTH",
"145 591 OFFCURVE",
"205 645 OFFCURVE",
"298 645 CURVE SMOOTH",
"369 645 OFFCURVE",
"454 608 OFFCURVE",
"454 479 CURVE SMOOTH",
"454 0 LINE"
);
}
);
width = 634;
}
);
unicode = 16A43;
},
{
glyphname = u16A44;
lastChange = "2018-02-01 19:37:50 +0000";
layers = (
{
layerId = UUID0;
paths = (
{
closed = 1;
nodes = (
"605 0 LINE",
"605 80 LINE",
"363 80 LINE",
"363 714 LINE",
"273 714 LINE",
"273 80 LINE",
"30 80 LINE",
"30 0 LINE"
);
}
);
width = 635;
}
);
unicode = 16A44;
},
{
glyphname = u16A45;
lastChange = "2018-02-01 19:37:50 +0000";
layers = (
{
layerId = UUID0;
paths = (
{
closed = 1;
nodes = (
"114 0 LINE",
"282 458 LINE SMOOTH",
"301 511 OFFCURVE",
"321 567 OFFCURVE",
"333 614 CURVE",
"343 567 OFFCURVE",
"364 510 OFFCURVE",
"384 456 CURVE SMOOTH",
"551 0 LINE",
"646 0 LINE",
"378 714 LINE",
"288 714 LINE",
"20 0 LINE"
);
}
);
width = 666;
}
);
unicode = 16A45;
},
{
glyphname = u16A46;
lastChange = "2018-02-01 19:37:50 +0000";
layers = (
{
layerId = UUID0;
paths = (
{
closed = 1;
nodes = (
"557 0 LINE",
"557 361 LINE",
"494 361 LINE",
"456 355 OFFCURVE",
"410 350 OFFCURVE",
"351 350 CURVE SMOOTH",
"223 350 OFFCURVE",
"145 388 OFFCURVE",
"145 498 CURVE SMOOTH",
"145 607 OFFCURVE",
"223 645 OFFCURVE",
"351 645 CURVE SMOOTH",
"421 645 OFFCURVE",
"484 640 OFFCURVE",
"532 630 CURVE",
"559 706 LINE",
"495 722 OFFCURVE",
"421 725 OFFCURVE",
"351 725 CURVE SMOOTH",
"170 725 OFFCURVE",
"50 646 OFFCURVE",
"50 501 CURVE SMOOTH",
"50 361 OFFCURVE",
"149 270 OFFCURVE",
"351 270 CURVE SMOOTH",
"392 270 OFFCURVE",
"430 271 OFFCURVE",
"467 275 CURVE",
"467 0 LINE"
);
}
);
width = 659;
}
);
unicode = 16A46;
},
{
glyphname = u16A47;
lastChange = "2018-02-01 19:37:50 +0000";
layers = (
{
layerId = UUID0;
paths = (
{
closed = 1;
nodes = (
"542 0 LINE",
"542 80 LINE",
"190 80 LINE",
"190 634 LINE",
"542 634 LINE",
"542 714 LINE",
"100 714 LINE",
"100 0 LINE"
);
}
);
width = 577;
}
);
unicode = 16A47;
},
{
glyphname = u16A48;
lastChange = "2018-02-01 19:37:50 +0000";
layers = (
{
layerId = UUID0;
paths = (
{
closed = 1;
nodes = (
"577 0 LINE",
"577 714 LINE",
"35 714 LINE",
"35 634 LINE",
"487 634 LINE",
"487 0 LINE"
);
}
);
width = 677;
}
);
unicode = 16A48;
},
{
glyphname = u16A49;
lastChange = "2018-02-01 19:37:50 +0000";
layers = (
{
layerId = UUID0;
paths = (
{
closed = 1;
nodes = (
"477 0 LINE",
"477 714 LINE",
"35 714 LINE",
"35 634 LINE",
"387 634 LINE",
"387 80 LINE",
"35 80 LINE",
"35 0 LINE"
);
}
);
width = 577;
}
);
unicode = 16A49;
},
{
glyphname = u16A4A;
lastChange = "2018-02-01 19:37:50 +0000";
layers = (
{
layerId = UUID0;
paths = (
{
closed = 1;
nodes = (
"140 0 LINE",
"527 334 LINE",
"531 334 LINE",
"527 287 OFFCURVE",
"523 213 OFFCURVE",
"523 140 CURVE SMOOTH",
"523 0 LINE",
"606 0 LINE",
"606 474 LINE",
"575 474 LINE",
"181 133 LINE",
"177 133 LINE",
"179 165 OFFCURVE",
"184 256 OFFCURVE",
"184 321 CURVE SMOOTH",
"184 714 LINE",
"100 714 LINE",
"100 0 LINE"
);
}
);
width = 706;
}
);
unicode = 16A4A;
},
{
glyphname = u16A4B;
lastChange = "2018-02-01 19:37:50 +0000";
layers = (
{
layerId = UUID0;
paths = (
{
closed = 1;
nodes = (
"363 0 LINE",
"363 634 LINE",
"605 634 LINE",
"605 714 LINE",
"30 714 LINE",
"30 634 LINE",
"273 634 LINE",
"273 0 LINE"
);
}
);
width = 635;
}
);
unicode = 16A4B;
},
{
glyphname = u16A4C;
lastChange = "2018-02-01 19:37:50 +0000";
layers = (
{
layerId = UUID0;
paths = (
{
closed = 1;
nodes = (
"190 0 LINE",
"190 333 LINE",
"456 333 LINE",
"456 412 LINE",
"190 412 LINE",
"190 714 LINE",
"100 714 LINE",
"100 0 LINE"
);
}
);
width = 516;
}
);
unicode = 16A4C;
},
{
glyphname = u16A4D;
lastChange = "2018-02-01 19:37:50 +0000";
layers = (
{
layerId = UUID0;
paths = (
{
closed = 1;
nodes = (
"378 0 LINE",
"646 714 LINE",
"551 714 LINE",
"384 258 LINE SMOOTH",
"364 204 OFFCURVE",
"344 147 OFFCURVE",
"333 100 CURVE",
"321 147 OFFCURVE",
"301 204 OFFCURVE",
"282 256 CURVE SMOOTH",
"114 714 LINE",
"20 714 LINE",
"288 0 LINE"
);
}
);
width = 666;
}
);
unicode = 16A4D;
},
{
glyphname = u16A4E;
lastChange = "2018-02-01 19:37:50 +0000";
layers = (
{
layerId = UUID0;
paths = (
{
closed = 1;
nodes = (
"421 -10 OFFCURVE",
"495 -7 OFFCURVE",
"559 9 CURVE",
"532 85 LINE",
"484 75 OFFCURVE",
"421 70 OFFCURVE",
"351 70 CURVE SMOOTH",
"223 70 OFFCURVE",
"145 108 OFFCURVE",
"145 217 CURVE SMOOTH",
"145 327 OFFCURVE",
"223 365 OFFCURVE",
"351 365 CURVE SMOOTH",
"410 365 OFFCURVE",
"456 360 OFFCURVE",
"494 354 CURVE",
"557 354 LINE",
"557 715 LINE",
"467 715 LINE",
"467 440 LINE",
"430 444 OFFCURVE",
"392 445 OFFCURVE",
"351 445 CURVE SMOOTH",
"149 445 OFFCURVE",
"50 354 OFFCURVE",
"50 214 CURVE SMOOTH",
"50 69 OFFCURVE",
"170 -10 OFFCURVE",
"351 -10 CURVE SMOOTH"
);
}
);
width = 659;
}
);
unicode = 16A4E;
},
{
glyphname = u16A4F;
lastChange = "2018-02-01 19:37:50 +0000";
layers = (
{
layerId = UUID0;
paths = (
{
closed = 1;
nodes = (
"366 0 LINE",
"366 333 LINE",
"582 333 LINE",
"582 412 LINE",
"366 412 LINE",
"366 714 LINE",
"276 714 LINE",
"276 412 LINE",
"60 412 LINE",
"60 333 LINE",
"276 333 LINE",
"276 0 LINE"
);
},
{
closed = 1;
nodes = (
"181 125 LINE",
"181 201 LINE",
"91 201 LINE",
"91 125 LINE"
);
},
{
closed = 1;
nodes = (
"551 125 LINE",
"551 201 LINE",
"461 201 LINE",
"461 125 LINE"
);
},
{
closed = 1;
nodes = (
"181 544 LINE",
"181 620 LINE",
"91 620 LINE",
"91 544 LINE"
);
},
{
closed = 1;
nodes = (
"551 544 LINE",
"551 620 LINE",
"461 620 LINE",
"461 544 LINE"
);
}
);
width = 642;
}
);
unicode = 16A4F;
},
{
glyphname = u16A50;
lastChange = "2018-02-01 19:37:50 +0000";
layers = (
{
layerId = UUID0;
paths = (
{
closed = 1;
nodes = (
"192 0 LINE",
"192 275 LINE",
"229 271 OFFCURVE",
"267 270 OFFCURVE",
"308 270 CURVE SMOOTH",
"510 270 OFFCURVE",
"609 361 OFFCURVE",
"609 501 CURVE SMOOTH",
"609 646 OFFCURVE",
"489 725 OFFCURVE",
"308 725 CURVE SMOOTH",
"238 725 OFFCURVE",
"164 722 OFFCURVE",
"100 706 CURVE",
"127 630 LINE",
"175 640 OFFCURVE",
"238 645 OFFCURVE",
"308 645 CURVE SMOOTH",
"436 645 OFFCURVE",
"514 607 OFFCURVE",
"514 498 CURVE SMOOTH",
"514 388 OFFCURVE",
"436 350 OFFCURVE",
"308 350 CURVE SMOOTH",
"249 350 OFFCURVE",
"203 355 OFFCURVE",
"165 361 CURVE",
"102 361 LINE",
"102 0 LINE"
);
}
);
width = 659;
}
);
unicode = 16A50;
},
{
glyphname = u16A51;
lastChange = "2018-02-01 19:37:50 +0000";
layers = (
{
layerId = UUID0;
paths = (
{
closed = 1;
nodes = (
"452 -10 OFFCURVE",
"538 85 OFFCURVE",
"538 192 CURVE SMOOTH",
"538 244 OFFCURVE",
"514 283 OFFCURVE",
"471 343 CURVE SMOOTH",
"201 715 LINE",
"94 715 LINE",
"417 275 LINE SMOOTH",
"436 249 OFFCURVE",
"445 223 OFFCURVE",
"445 191 CURVE SMOOTH",
"445 118 OFFCURVE",
"381 69 OFFCURVE",
"298 69 CURVE SMOOTH",
"208 69 OFFCURVE",
"142 119 OFFCURVE",
"142 199 CURVE SMOOTH",
"142 272 OFFCURVE",
"191 322 OFFCURVE",
"284 322 CURVE SMOOTH",
"325 322 OFFCURVE",
"384 317 OFFCURVE",
"426 313 CURVE",
"360 397 LINE",
"335 399 OFFCURVE",
"308 401 OFFCURVE",
"280 401 CURVE SMOOTH",
"153 401 OFFCURVE",
"50 332 OFFCURVE",
"50 191 CURVE SMOOTH",
"50 82 OFFCURVE",
"138 -10 OFFCURVE",
"298 -10 CURVE SMOOTH"
);
},
{
closed = 1;
nodes = (
"525 525 OFFCURVE",
"578 594 OFFCURVE",
"610 668 CURVE",
"547 694 LINE",
"518 629 OFFCURVE",
"470 604 OFFCURVE",
"393 604 CURVE SMOOTH",
"295 604 OFFCURVE",
"261 632 OFFCURVE",
"220 688 CURVE",
"229 565 LINE",
"252 554 OFFCURVE",
"305 525 OFFCURVE",
"394 525 CURVE SMOOTH"
);
},
{
closed = 1;
nodes = (
"433 649 LINE",
"433 725 LINE",
"343 725 LINE",
"343 649 LINE"
);
}
);
width = 609;
}
);
unicode = 16A51;
},
{
glyphname = u16A52;
lastChange = "2018-02-01 19:37:50 +0000";
layers = (
{
layerId = UUID0;
paths = (
{
closed = 1;
nodes = (
"458 -10 OFFCURVE",
"612 141 OFFCURVE",
"612 412 CURVE SMOOTH",
"612 589 OFFCURVE",
"499 725 OFFCURVE",
"315 725 CURVE SMOOTH",
"163 725 OFFCURVE",
"81 631 OFFCURVE",
"81 530 CURVE SMOOTH",
"81 430 OFFCURVE",
"143 345 OFFCURVE",
"329 345 CURVE SMOOTH",
"389 345 OFFCURVE",
"460 358 OFFCURVE",
"546 384 CURVE",
"527 459 LINE",
"463 434 OFFCURVE",
"367 425 OFFCURVE",
"316 425 CURVE SMOOTH",
"210 425 OFFCURVE",
"173 480 OFFCURVE",
"173 532 CURVE SMOOTH",
"173 592 OFFCURVE",
"225 645 OFFCURVE",
"312 645 CURVE SMOOTH",
"443 645 OFFCURVE",
"518 538 OFFCURVE",
"518 414 CURVE SMOOTH",
"518 178 OFFCURVE",
"410 70 OFFCURVE",
"243 70 CURVE SMOOTH",
"181 70 OFFCURVE",
"150 97 OFFCURVE",
"150 136 CURVE SMOOTH",
"150 186 OFFCURVE",
"204 195 OFFCURVE",
"228 195 CURVE SMOOTH",
"367 195 OFFCURVE",
"454 -10 OFFCURVE",
"624 -10 CURVE SMOOTH",
"720 -10 OFFCURVE",
"788 43 OFFCURVE",
"852 139 CURVE",
"806 180 LINE",
"746 97 OFFCURVE",
"682 70 OFFCURVE",
"629 70 CURVE SMOOTH",
"515 70 OFFCURVE",
"406 275 OFFCURVE",
"229 275 CURVE SMOOTH",
"121 275 OFFCURVE",
"60 203 OFFCURVE",
"60 132 CURVE SMOOTH",
"60 27 OFFCURVE",
"150 -10 OFFCURVE",
"256 -10 CURVE SMOOTH"
);
}
);
width = 845;
}
);
unicode = 16A52;
},
{
glyphname = u16A53;
lastChange = "2018-02-01 19:37:50 +0000";
layers = (
{
layerId = UUID0;
paths = (
{
closed = 1;
nodes = (
"574 0 LINE",
"574 478 LINE SMOOTH",
"574 671 OFFCURVE",
"417 725 OFFCURVE",
"308 725 CURVE SMOOTH",
"160 725 OFFCURVE",
"50 633 OFFCURVE",
"50 483 CURVE SMOOTH",
"50 353 OFFCURVE",
"145 264 OFFCURVE",
"272 264 CURVE SMOOTH",
"370 264 OFFCURVE",
"413 314 OFFCURVE",
"413 386 CURVE SMOOTH",
"413 459 OFFCURVE",
"359 537 OFFCURVE",
"129 550 CURVE",
"120 470 LINE",
"265 470 OFFCURVE",
"323 423 OFFCURVE",
"323 386 CURVE SMOOTH",
"323 367 OFFCURVE",
"317 344 OFFCURVE",
"265 344 CURVE SMOOTH",
"191 344 OFFCURVE",
"141 401 OFFCURVE",
"141 497 CURVE SMOOTH",
"141 591 OFFCURVE",
"215 645 OFFCURVE",
"308 645 CURVE SMOOTH",
"379 645 OFFCURVE",
"484 608 OFFCURVE",
"484 479 CURVE SMOOTH",
"484 0 LINE"
);
}
);
width = 664;
}
);
unicode = 16A53;
},
{
glyphname = u16A54;
lastChange = "2018-02-01 19:37:50 +0000";
layers = (
{
layerId = UUID0;
paths = (
{
closed = 1;
nodes = (
"573 0 LINE",
"573 634 LINE",
"670 634 LINE",
"670 714 LINE",
"80 714 LINE",
"80 634 LINE",
"483 634 LINE",
"483 0 LINE"
);
},
{
closed = 1;
nodes = (
"507 0 LINE",
"518 80 LINE",
"351 80 LINE SMOOTH",
"218 80 OFFCURVE",
"145 127 OFFCURVE",
"145 227 CURVE SMOOTH",
"145 337 OFFCURVE",
"223 370 OFFCURVE",
"351 370 CURVE SMOOTH",
"494 370 LINE",
"507 450 LINE",
"351 450 LINE SMOOTH",
"151 450 OFFCURVE",
"50 354 OFFCURVE",
"50 224 CURVE SMOOTH",
"50 98 OFFCURVE",
"154 0 OFFCURVE",
"351 0 CURVE SMOOTH"
);
}
);
width = 690;
}
);
unicode = 16A54;
},
{
glyphname = u16A55;
lastChange = "2018-02-01 19:37:50 +0000";
layers = (
{
layerId = UUID0;
paths = (
{
closed = 1;
nodes = (
"353 -10 OFFCURVE",
"400 39 OFFCURVE",
"437 89 CURVE",
"384 135 LINE",
"364 110 OFFCURVE",
"325 70 OFFCURVE",
"248 70 CURVE SMOOTH",
"188 70 OFFCURVE",
"142 109 OFFCURVE",
"142 164 CURVE SMOOTH",
"142 237 OFFCURVE",
"209 290 OFFCURVE",
"312 290 CURVE SMOOTH",
"430 290 OFFCURVE",
"543 247 OFFCURVE",
"593 183 CURVE",
"627 274 LINE",
"558 326 OFFCURVE",
"435 370 OFFCURVE",
"317 370 CURVE SMOOTH",
"147 370 OFFCURVE",
"50 276 OFFCURVE",
"50 162 CURVE SMOOTH",
"50 62 OFFCURVE",
"123 -10 OFFCURVE",
"246 -10 CURVE SMOOTH"
);
},
{
closed = 1;
nodes = (
"640 0 LINE",
"640 714 LINE",
"550 714 LINE",
"550 0 LINE"
);
}
);
width = 740;
}
);
unicode = 16A55;
},
{
glyphname = u16A56;
lastChange = "2018-02-01 19:37:50 +0000";
layers = (
{
layerId = UUID0;
paths = (
{
closed = 1;
nodes = (
"592 146 LINE",
"553 192 OFFCURVE",
"506 202 OFFCURVE",
"455 202 CURVE SMOOTH",
"400 202 OFFCURVE",
"343 172 OFFCURVE",
"262 172 CURVE SMOOTH",
"179 172 OFFCURVE",
"142 214 OFFCURVE",
"142 282 CURVE SMOOTH",
"142 342 OFFCURVE",
"188 381 OFFCURVE",
"248 381 CURVE SMOOTH",
"325 381 OFFCURVE",
"364 341 OFFCURVE",
"384 316 CURVE",
"437 362 LINE",
"405 400 OFFCURVE",
"353 461 OFFCURVE",
"246 461 CURVE SMOOTH",
"123 461 OFFCURVE",
"50 380 OFFCURVE",
"50 280 CURVE SMOOTH",
"50 175 OFFCURVE",
"117 92 OFFCURVE",
"262 92 CURVE SMOOTH",
"337 92 OFFCURVE",
"385 122 OFFCURVE",
"440 122 CURVE SMOOTH",
"497 122 OFFCURVE",
"552 112 OFFCURVE",
"576 14 CURVE"
);
},
{
closed = 1;
nodes = (
"664 0 LINE",
"664 714 LINE",
"574 714 LINE",
"574 0 LINE"
);
}
);
width = 764;
}
);
unicode = 16A56;
},
{
glyphname = u16A57;
lastChange = "2018-02-01 19:37:50 +0000";
layers = (
{
layerId = UUID0;
paths = (
{
closed = 1;
nodes = (
"572 -10 OFFCURVE",
"676 82 OFFCURVE",
"698 214 CURVE",
"600 214 LINE",
"579 118 OFFCURVE",
"505 70 OFFCURVE",
"406 70 CURVE SMOOTH",
"236 70 OFFCURVE",
"155 191 OFFCURVE",
"155 366 CURVE SMOOTH",
"155 545 OFFCURVE",
"249 645 OFFCURVE",
"404 645 CURVE SMOOTH",
"505 645 OFFCURVE",
"580 593 OFFCURVE",
"600 500 CURVE",
"698 500 LINE",
"677 628 OFFCURVE",
"573 725 OFFCURVE",
"395 725 CURVE SMOOTH",
"193 725 OFFCURVE",
"60 580 OFFCURVE",
"60 367 CURVE SMOOTH",
"60 142 OFFCURVE",
"169 -10 OFFCURVE",
"405 -10 CURVE SMOOTH"
);
}
);
width = 748;
}
);
unicode = 16A57;
},
{
glyphname = u16A58;
lastChange = "2018-02-01 19:37:50 +0000";
layers = (
{
layerId = UUID0;
paths = (
{
closed = 1;
nodes = (
"190 0 LINE",
"190 333 LINE",
"556 333 LINE",
"556 0 LINE",
"646 0 LINE",
"646 412 LINE",
"190 412 LINE",
"190 714 LINE",
"100 714 LINE",
"100 0 LINE"
);
}
);
width = 746;
}
);
unicode = 16A58;
},
{
glyphname = u16A59;
lastChange = "2018-02-01 19:37:50 +0000";
layers = (
{
layerId = UUID0;
paths = (
{
closed = 1;
nodes = (
"230 0 LINE",
"230 714 LINE",
"140 714 LINE",
"140 0 LINE"
);
}
);
width = 370;
}
);
unicode = 16A59;
},
{
glyphname = u16A5A;
lastChange = "2018-02-01 19:37:50 +0000";
layers = (
{
layerId = UUID0;
paths = (
{
closed = 1;
nodes = (
"363 0 LINE",
"363 714 LINE",
"279 714 LINE",
"279 291 LINE SMOOTH",
"279 226 OFFCURVE",
"284 135 OFFCURVE",
"286 103 CURVE",
"282 103 LINE",
"35 334 LINE",
"20 334 LINE",
"20 233 LINE",
"258 0 LINE"
);
}
);
width = 463;
}
);
unicode = 16A5A;
},
{
glyphname = u16A5B;
lastChange = "2018-02-01 19:37:50 +0000";
layers = (
{
layerId = UUID0;
paths = (
{
closed = 1;
nodes = (
"450 339 OFFCURVE",
"529 412 OFFCURVE",
"556 510 CURVE",
"484 564 LINE",
"484 454 OFFCURVE",
"399 419 OFFCURVE",
"316 419 CURVE SMOOTH",
"208 419 OFFCURVE",
"140 460 OFFCURVE",
"140 564 CURVE SMOOTH",
"140 715 LINE",
"50 715 LINE",
"50 565 LINE SMOOTH",
"50 386 OFFCURVE",
"195 339 OFFCURVE",
"307 339 CURVE SMOOTH"
);
},
{
closed = 1;
nodes = (
"574 0 LINE",
"574 715 LINE",
"484 715 LINE",
"484 0 LINE"
);
},
{
closed = 1;
nodes = (
"350 600 OFFCURVE",
"378 627 OFFCURVE",
"378 662 CURVE SMOOTH",
"378 697 OFFCURVE",
"350 725 OFFCURVE",
"315 725 CURVE SMOOTH",
"280 725 OFFCURVE",
"253 697 OFFCURVE",
"253 662 CURVE SMOOTH",
"253 627 OFFCURVE",
"280 600 OFFCURVE",
"315 600 CURVE SMOOTH"
);
}
);
width = 674;
}
);
unicode = 16A5B;
},
{
glyphname = u16A5C;
lastChange = "2018-02-01 19:37:50 +0000";
layers = (
{
layerId = UUID0;
paths = (
{
closed = 1;
nodes = (
"463 -10 OFFCURVE",
"556 71 OFFCURVE",
"556 216 CURVE SMOOTH",
"556 715 LINE",
"466 715 LINE",
"466 221 LINE SMOOTH",
"466 114 OFFCURVE",
"398 69 OFFCURVE",
"308 69 CURVE SMOOTH",
"215 69 OFFCURVE",
"142 114 OFFCURVE",
"142 191 CURVE SMOOTH",
"142 262 OFFCURVE",
"201 297 OFFCURVE",
"294 297 CURVE SMOOTH",
"372 297 OFFCURVE",
"445 273 OFFCURVE",
"490 256 CURVE",
"491 340 LINE",
"458 354 OFFCURVE",
"403 376 OFFCURVE",
"290 376 CURVE SMOOTH",
"163 376 OFFCURVE",
"50 322 OFFCURVE",
"50 191 CURVE SMOOTH",
"50 72 OFFCURVE",
"148 -10 OFFCURVE",
"308 -10 CURVE SMOOTH"
);
},
{
closed = 1;
nodes = (
"408 449 OFFCURVE",
"538 483 OFFCURVE",
"538 676 CURVE SMOOTH",
"538 685 LINE",
"466 685 LINE",
"466 675 LINE SMOOTH",
"466 550 OFFCURVE",
"378 529 OFFCURVE",
"307 529 CURVE SMOOTH",
"236 529 OFFCURVE",
"144 546 OFFCURVE",
"144 675 CURVE SMOOTH",
"144 715 LINE",
"54 715 LINE",
"54 676 LINE SMOOTH",
"54 488 OFFCURVE",
"191 449 OFFCURVE",
"299 449 CURVE SMOOTH"
);
}
);
width = 646;
}
);
unicode = 16A5C;
},
{
glyphname = u16A5D;
lastChange = "2018-02-01 19:37:50 +0000";
layers = (
{
layerId = UUID0;
paths = (
{
closed = 1;
nodes = (
"440 -10 OFFCURVE",
"544 68 OFFCURVE",
"544 237 CURVE SMOOTH",
"544 715 LINE",
"454 715 LINE",
"454 226 LINE",
"454 119 OFFCURVE",
"381 70 OFFCURVE",
"298 70 CURVE SMOOTH",
"205 70 OFFCURVE",
"145 124 OFFCURVE",
"145 218 CURVE SMOOTH",
"145 314 OFFCURVE",
"209 368 OFFCURVE",
"302 368 CURVE SMOOTH",
"402 368 OFFCURVE",
"454 299 OFFCURVE",
"454 229 CURVE",
"484 350 LINE",
"462 396 OFFCURVE",
"407 448 OFFCURVE",
"298 448 CURVE SMOOTH",
"157 448 OFFCURVE",
"50 362 OFFCURVE",
"50 221 CURVE SMOOTH",
"50 82 OFFCURVE",
"150 -10 OFFCURVE",
"303 -10 CURVE SMOOTH"
);
}
);
width = 634;
}
);
unicode = 16A5D;
},
{
glyphname = u16A5E;
lastChange = "2018-02-01 19:37:50 +0000";
layers = (
{
layerId = UUID0;
paths = (
{
closed = 1;
nodes = (
"866 0 LINE",
"866 508 LINE SMOOTH",
"866 646 OFFCURVE",
"818 725 OFFCURVE",
"701 725 CURVE SMOOTH",
"586 725 OFFCURVE",
"535 646 OFFCURVE",
"535 508 CURVE SMOOTH",
"535 378 LINE SMOOTH",
"535 249 OFFCURVE",
"480 232 OFFCURVE",
"417 232 CURVE SMOOTH",
"342 232 OFFCURVE",
"325 258 OFFCURVE",
"315 300 CURVE",
"222 300 LINE",
"230 208 OFFCURVE",
"298 152 OFFCURVE",
"417 152 CURVE SMOOTH",
"510 152 OFFCURVE",
"625 195 OFFCURVE",
"625 379 CURVE SMOOTH",
"625 509 LINE SMOOTH",
"625 598 OFFCURVE",
"639 645 OFFCURVE",
"701 645 CURVE SMOOTH",
"766 645 OFFCURVE",
"776 593 OFFCURVE",
"776 509 CURVE SMOOTH",
"776 0 LINE"
);
},
{
closed = 1;
nodes = (
"400 -10 OFFCURVE",
"445 -4 OFFCURVE",
"482 5 CURVE",
"482 90 LINE",
"455 80 OFFCURVE",
"410 70 OFFCURVE",
"344 70 CURVE SMOOTH",
"243 70 OFFCURVE",
"145 117 OFFCURVE",
"145 238 CURVE SMOOTH",
"145 359 OFFCURVE",
"243 407 OFFCURVE",
"344 407 CURVE SMOOTH",
"409 407 OFFCURVE",
"454 397 OFFCURVE",
"482 386 CURVE",
"482 471 LINE",
"444 481 OFFCURVE",
"402 487 OFFCURVE",
"346 487 CURVE SMOOTH",
"160 487 OFFCURVE",
"50 382 OFFCURVE",
"50 238 CURVE SMOOTH",
"50 84 OFFCURVE",
"161 -10 OFFCURVE",
"346 -10 CURVE SMOOTH"
);
}
);
width = 966;
}
);
unicode = 16A5E;
},
{
glyphname = u16A60;
lastChange = "2018-02-01 19:37:50 +0000";
layers = (
{
layerId = UUID0;
paths = (
{
closed = 1;
nodes = (
"565 -10 OFFCURVE",
"679 137 OFFCURVE",
"679 358 CURVE SMOOTH",
"679 580 OFFCURVE",
"561 725 OFFCURVE",
"371 725 CURVE SMOOTH",
"177 725 OFFCURVE",
"60 578 OFFCURVE",
"60 359 CURVE SMOOTH",
"60 138 OFFCURVE",
"167 -10 OFFCURVE",
"370 -10 CURVE SMOOTH"
);
},
{
closed = 1;
nodes = (
"229 70 OFFCURVE",
"155 178 OFFCURVE",
"155 358 CURVE SMOOTH",
"155 538 OFFCURVE",
"229 645 OFFCURVE",
"371 645 CURVE SMOOTH",
"512 645 OFFCURVE",
"584 538 OFFCURVE",
"584 358 CURVE SMOOTH",
"584 178 OFFCURVE",
"512 70 OFFCURVE",
"370 70 CURVE SMOOTH"
);
}
);
width = 739;
}
);
unicode = 16A60;
},
{
glyphname = u16A61;
lastChange = "2018-02-01 19:37:50 +0000";
layers = (
{
layerId = UUID0;
paths = (
{
closed = 1;
nodes = (
"404 0 LINE",
"404 278 LINE SMOOTH",
"404 397 OFFCURVE",
"332 484 OFFCURVE",
"216 484 CURVE SMOOTH",
"107 484 OFFCURVE",
"64 426 OFFCURVE",
"64 364 CURVE SMOOTH",
"64 317 OFFCURVE",
"113 240 OFFCURVE",
"261 240 CURVE SMOOTH",
"395 240 OFFCURVE",
"562 309 OFFCURVE",
"562 491 CURVE SMOOTH",
"562 624 OFFCURVE",
"458 725 OFFCURVE",
"286 725 CURVE SMOOTH",
"191 725 OFFCURVE",
"107 686 OFFCURVE",
"60 638 CURVE",
"120 586 LINE",
"146 609 OFFCURVE",
"195 645 OFFCURVE",
"282 645 CURVE SMOOTH",
"389 645 OFFCURVE",
"467 597 OFFCURVE",
"467 488 CURVE SMOOTH",
"467 364 OFFCURVE",
"361 320 OFFCURVE",
"261 320 CURVE SMOOTH",
"196 320 OFFCURVE",
"154 347 OFFCURVE",
"154 372 CURVE SMOOTH",
"154 386 OFFCURVE",
"160 409 OFFCURVE",
"217 409 CURVE SMOOTH",
"278 409 OFFCURVE",
"313 358 OFFCURVE",
"313 271 CURVE SMOOTH",
"313 0 LINE"
);
},
{
closed = 1;
nodes = (
"484 0 LINE",
"484 61 LINE",
"233 61 LINE",
"233 0 LINE"
);
}
);
width = 622;
}
);
unicode = 16A61;
},
{
glyphname = u16A62;
lastChange = "2018-02-01 19:37:50 +0000";
layers = (
{
layerId = UUID0;
paths = (
{
closed = 1;
nodes = (
"400 0 LINE",
"400 252 LINE SMOOTH",
"400 355 OFFCURVE",
"328 444 OFFCURVE",
"207 444 CURVE SMOOTH",
"103 444 OFFCURVE",
"60 389 OFFCURVE",
"60 335 CURVE SMOOTH",
"60 263 OFFCURVE",
"128 200 OFFCURVE",
"274 200 CURVE SMOOTH",
"434 200 OFFCURVE",
"548 267 OFFCURVE",
"548 373 CURVE SMOOTH",
"548 486 OFFCURVE",
"406 529 OFFCURVE",
"292 550 CURVE SMOOTH",
"227 562 OFFCURVE",
"175 573 OFFCURVE",
"175 602 CURVE SMOOTH",
"175 630 OFFCURVE",
"218 645 OFFCURVE",
"296 645 CURVE SMOOTH",
"349 645 OFFCURVE",
"393 638 OFFCURVE",
"452 611 CURVE",
"498 679 LINE",
"446 701 OFFCURVE",
"385 725 OFFCURVE",
"295 725 CURVE SMOOTH",
"193 725 OFFCURVE",
"80 694 OFFCURVE",
"80 602 CURVE SMOOTH",
"80 517 OFFCURVE",
"182 487 OFFCURVE",
"279 471 CURVE SMOOTH",
"370 456 OFFCURVE",
"453 431 OFFCURVE",
"453 373 CURVE SMOOTH",
"453 305 OFFCURVE",
"373 280 OFFCURVE",
"257 280 CURVE SMOOTH",
"194 280 OFFCURVE",
"150 301 OFFCURVE",
"150 332 CURVE SMOOTH",
"150 350 OFFCURVE",
"164 369 OFFCURVE",
"208 369 CURVE SMOOTH",
"274 369 OFFCURVE",
"309 318 OFFCURVE",
"309 231 CURVE SMOOTH",
"309 0 LINE"
);
}
);
width = 608;
}
);
unicode = 16A62;
},
{
glyphname = u16A63;
lastChange = "2018-02-01 19:37:50 +0000";
layers = (
{
layerId = UUID0;
paths = (
{
closed = 1;
nodes = (
"403 267 OFFCURVE",
"510 353 OFFCURVE",
"510 494 CURVE SMOOTH",
"510 633 OFFCURVE",
"410 725 OFFCURVE",
"262 725 CURVE SMOOTH",
"187 725 OFFCURVE",
"106 692 OFFCURVE",
"60 620 CURVE",
"119 573 LINE",
"152 622 OFFCURVE",
"211 645 OFFCURVE",
"262 645 CURVE SMOOTH",
"355 645 OFFCURVE",
"415 591 OFFCURVE",
"415 497 CURVE SMOOTH",
"415 401 OFFCURVE",
"351 347 OFFCURVE",
"258 347 CURVE SMOOTH",
"222 347 OFFCURVE",
"178 357 OFFCURVE",
"151 398 CURVE",
"177 280 LINE",
"201 272 OFFCURVE",
"230 267 OFFCURVE",
"262 267 CURVE SMOOTH"
);
},
{
closed = 1;
nodes = (
"438 0 LINE",
"144 408 LINE",
"74 356 LINE",
"331 0 LINE"
);
}
);
width = 570;
}
);
unicode = 16A63;
},
{
glyphname = u16A64;
lastChange = "2018-02-01 19:37:50 +0000";
layers = (
{
layerId = UUID0;
paths = (
{
closed = 1;
nodes = (
"340 267 OFFCURVE",
"369 272 OFFCURVE",
"393 280 CURVE",
"419 398 LINE",
"392 357 OFFCURVE",
"348 347 OFFCURVE",
"312 347 CURVE SMOOTH",
"219 347 OFFCURVE",
"155 401 OFFCURVE",
"155 497 CURVE SMOOTH",
"155 591 OFFCURVE",
"215 645 OFFCURVE",
"308 645 CURVE SMOOTH",
"359 645 OFFCURVE",
"418 622 OFFCURVE",
"451 573 CURVE",
"510 620 LINE",
"464 692 OFFCURVE",
"383 725 OFFCURVE",
"308 725 CURVE SMOOTH",
"160 725 OFFCURVE",
"60 633 OFFCURVE",
"60 494 CURVE SMOOTH",
"60 353 OFFCURVE",
"167 267 OFFCURVE",
"308 267 CURVE SMOOTH"
);
},
{
closed = 1;
nodes = (
"239 0 LINE",
"496 356 LINE",
"426 408 LINE",
"132 0 LINE"
);
}
);
width = 570;
}
);
unicode = 16A64;
},
{
glyphname = u16A65;
lastChange = "2018-02-01 19:37:50 +0000";
layers = (
{
layerId = UUID0;
paths = (
{
closed = 1;
nodes = (
"478 -10 OFFCURVE",
"591 109 OFFCURVE",
"591 384 CURVE SMOOTH",
"591 618 OFFCURVE",
"470 725 OFFCURVE",
"306 725 CURVE SMOOTH",
"154 725 OFFCURVE",
"62 628 OFFCURVE",
"62 514 CURVE SMOOTH",
"62 388 OFFCURVE",
"154 312 OFFCURVE",
"306 312 CURVE SMOOTH",
"406 312 OFFCURVE",
"487 352 OFFCURVE",
"540 436 CURVE",
"506 518 LINE",
"476 446 OFFCURVE",
"399 392 OFFCURVE",
"303 392 CURVE SMOOTH",
"205 392 OFFCURVE",
"157 440 OFFCURVE",
"157 513 CURVE SMOOTH",
"157 589 OFFCURVE",
"216 645 OFFCURVE",
"303 645 CURVE SMOOTH",
"444 645 OFFCURVE",
"496 542 OFFCURVE",
"496 388 CURVE SMOOTH",
"496 139 OFFCURVE",
"419 70 OFFCURVE",
"303 70 CURVE SMOOTH",
"217 70 OFFCURVE",
"175 111 OFFCURVE",
"151 158 CURVE",
"60 141 LINE",
"99 35 OFFCURVE",
"187 -10 OFFCURVE",
"306 -10 CURVE SMOOTH"
);
}
);
width = 651;
}
);
unicode = 16A65;
},
{
glyphname = u16A66;
lastChange = "2018-02-01 19:37:50 +0000";
layers = (
{
layerId = UUID0;
paths = (
{
closed = 1;
nodes = (
"373 267 OFFCURVE",
"411 288 OFFCURVE",
"446 334 CURVE",
"410 430 LINE",
"395 363 OFFCURVE",
"344 347 OFFCURVE",
"291 347 CURVE SMOOTH",
"228 347 OFFCURVE",
"155 401 OFFCURVE",
"155 497 CURVE SMOOTH",
"155 591 OFFCURVE",
"215 645 OFFCURVE",
"308 645 CURVE SMOOTH",
"330 645 OFFCURVE",
"353 641 OFFCURVE",
"375 632 CURVE",
"411 704 LINE",
"378 719 OFFCURVE",
"342 725 OFFCURVE",
"308 725 CURVE SMOOTH",
"160 725 OFFCURVE",
"60 633 OFFCURVE",
"60 494 CURVE SMOOTH",
"60 353 OFFCURVE",
"167 267 OFFCURVE",
"287 267 CURVE SMOOTH"
);
},
{
closed = 1;
nodes = (
"683 -10 OFFCURVE",
"736 57 OFFCURVE",
"740 182 CURVE",
"651 182 LINE",
"649 108 OFFCURVE",
"635 70 OFFCURVE",
"575 70 CURVE SMOOTH",
"510 70 OFFCURVE",
"500 122 OFFCURVE",
"500 206 CURVE SMOOTH",
"500 458 LINE",
"410 458 LINE",
"410 207 LINE SMOOTH",
"410 69 OFFCURVE",
"458 -10 OFFCURVE",
"575 -10 CURVE SMOOTH"
);
}
);
width = 770;
}
);
unicode = 16A66;
},
{
glyphname = u16A67;
lastChange = "2018-02-01 19:37:50 +0000";
layers = (
{
layerId = UUID0;
paths = (
{
closed = 1;
nodes = (
"401 0 LINE",
"401 350 LINE",
"424 322 OFFCURVE",
"460 305 OFFCURVE",
"507 305 CURVE SMOOTH",
"602 305 OFFCURVE",
"672 390 OFFCURVE",
"672 517 CURVE SMOOTH",
"672 641 OFFCURVE",
"598 725 OFFCURVE",
"496 725 CURVE SMOOTH",
"437 725 OFFCURVE",
"388 693 OFFCURVE",
"356 645 CURVE",
"324 693 OFFCURVE",
"275 725 OFFCURVE",
"212 725 CURVE SMOOTH",
"114 725 OFFCURVE",
"40 641 OFFCURVE",
"40 513 CURVE SMOOTH",
"40 396 OFFCURVE",
"105 305 OFFCURVE",
"210 305 CURVE SMOOTH",
"252 305 OFFCURVE",
"288 325 OFFCURVE",
"311 350 CURVE",
"311 0 LINE"
);
},
{
closed = 1;
nodes = (
"154 385 OFFCURVE",
"127 444 OFFCURVE",
"127 515 CURVE SMOOTH",
"127 584 OFFCURVE",
"158 645 OFFCURVE",
"219 645 CURVE SMOOTH",
"277 645 OFFCURVE",
"311 589 OFFCURVE",
"311 519 CURVE SMOOTH",
"311 506 LINE SMOOTH",
"311 427 OFFCURVE",
"264 385 OFFCURVE",
"218 385 CURVE SMOOTH"
);
},
{
closed = 1;
nodes = (
"445 385 OFFCURVE",
"404 429 OFFCURVE",
"401 509 CURVE SMOOTH",
"401 520 LINE SMOOTH",
"401 589 OFFCURVE",
"437 645 OFFCURVE",
"493 645 CURVE SMOOTH",
"555 645 OFFCURVE",
"585 588 OFFCURVE",
"585 521 CURVE SMOOTH",
"585 449 OFFCURVE",
"559 385 OFFCURVE",
"494 385 CURVE SMOOTH"
);
}
);
width = 712;
}
);
unicode = 16A67;
},
{
glyphname = u16A68;
lastChange = "2018-02-01 19:37:50 +0000";
layers = (
{
layerId = UUID0;
paths = (
{
closed = 1;
nodes = (
"450 -10 OFFCURVE",
"531 70 OFFCURVE",
"639 221 CURVE SMOOTH",
"736 356 LINE",
"666 408 LINE",
"568 272 LINE SMOOTH",
"474 142 OFFCURVE",
"411 70 OFFCURVE",
"308 70 CURVE SMOOTH",
"215 70 OFFCURVE",
"155 124 OFFCURVE",
"155 218 CURVE SMOOTH",
"155 272 OFFCURVE",
"175 312 OFFCURVE",
"209 337 CURVE",
"152 399 LINE",
"96 360 OFFCURVE",
"60 294 OFFCURVE",
"60 221 CURVE SMOOTH",
"60 82 OFFCURVE",
"160 -10 OFFCURVE",
"308 -10 CURVE SMOOTH"
);
},
{
closed = 1;
nodes = (
"580 267 OFFCURVE",
"609 272 OFFCURVE",
"633 280 CURVE",
"659 398 LINE",
"632 357 OFFCURVE",
"588 347 OFFCURVE",
"552 347 CURVE SMOOTH",
"459 347 OFFCURVE",
"395 401 OFFCURVE",
"395 497 CURVE SMOOTH",
"395 591 OFFCURVE",
"455 645 OFFCURVE",
"548 645 CURVE SMOOTH",
"599 645 OFFCURVE",
"658 622 OFFCURVE",
"691 573 CURVE",
"750 620 LINE",
"704 692 OFFCURVE",
"623 725 OFFCURVE",
"548 725 CURVE SMOOTH",
"400 725 OFFCURVE",
"300 633 OFFCURVE",
"300 494 CURVE SMOOTH",
"300 353 OFFCURVE",
"407 267 OFFCURVE",
"548 267 CURVE SMOOTH"
);
}
);
width = 810;
}
);
unicode = 16A68;
},
{
glyphname = u16A69;
lastChange = "2018-02-01 19:37:50 +0000";
layers = (
{
layerId = UUID0;
paths = (
{
closed = 1;
nodes = (
"627 -10 OFFCURVE",
"801 90 OFFCURVE",
"856 638 CURVE",
"786 649 LINE",
"728 194 OFFCURVE",
"594 70 OFFCURVE",
"471 70 CURVE SMOOTH",
"382 70 OFFCURVE",
"320 115 OFFCURVE",
"320 191 CURVE SMOOTH",
"320 271 OFFCURVE",
"380 332 OFFCURVE",
"469 377 CURVE",
"413 438 LINE",
"382 411 OFFCURVE",
"338 382 OFFCURVE",
"286 382 CURVE SMOOTH",
"223 382 OFFCURVE",
"155 430 OFFCURVE",
"155 514 CURVE SMOOTH",
"155 588 OFFCURVE",
"211 645 OFFCURVE",
"293 645 CURVE SMOOTH",
"331 645 OFFCURVE",
"387 628 OFFCURVE",
"421 585 CURVE",
"476 633 LINE",
"429 696 OFFCURVE",
"353 725 OFFCURVE",
"283 725 CURVE SMOOTH",
"158 725 OFFCURVE",
"60 633 OFFCURVE",
"60 514 CURVE SMOOTH",
"60 386 OFFCURVE",
"156 310 OFFCURVE",
"263 302 CURVE",
"240 275 OFFCURVE",
"225 240 OFFCURVE",
"225 181 CURVE SMOOTH",
"225 82 OFFCURVE",
"310 -10 OFFCURVE",
"469 -10 CURVE SMOOTH"
);
}
);
width = 886;
}
);
unicode = 16A69;
},
{
glyphname = u16A6E;
lastChange = "2018-02-01 19:37:50 +0000";
layers = (
{
layerId = UUID0;
paths = (
{
closed = 1;
nodes = (
"422 -1 LINE",
"582 176 LINE",
"470 176 LINE",
"310 -1 LINE"
);
},
{
closed = 1;
nodes = (
"195 -10 OFFCURVE",
"239 33 OFFCURVE",
"239 89 CURVE SMOOTH",
"239 145 OFFCURVE",
"195 189 OFFCURVE",
"139 189 CURVE SMOOTH",
"83 189 OFFCURVE",
"40 145 OFFCURVE",
"40 89 CURVE SMOOTH",
"40 33 OFFCURVE",
"83 -10 OFFCURVE",
"139 -10 CURVE SMOOTH"
);
}
);
width = 622;
}
);
unicode = 16A6E;
},
{
glyphname = u16A6F;
lastChange = "2018-02-01 19:37:50 +0000";
layers = (
{
layerId = UUID0;
paths = (
{
closed = 1;
nodes = (
"692 -1 LINE",
"852 176 LINE",
"740 176 LINE",
"580 -1 LINE"
);
},
{
closed = 1;
nodes = (
"195 -10 OFFCURVE",
"239 33 OFFCURVE",
"239 89 CURVE SMOOTH",
"239 145 OFFCURVE",
"195 189 OFFCURVE",
"139 189 CURVE SMOOTH",
"83 189 OFFCURVE",
"40 145 OFFCURVE",
"40 89 CURVE SMOOTH",
"40 33 OFFCURVE",
"83 -10 OFFCURVE",
"139 -10 CURVE SMOOTH"
);
},
{
closed = 1;
nodes = (
"422 -1 LINE",
"582 176 LINE",
"470 176 LINE",
"310 -1 LINE"
);
}
);
width = 892;
}
);
unicode = 16A6F;
},
